<svg width="52" height="41" viewBox="0 0 52 41" fill="none" xmlns="http://www.w3.org/2000/svg">
<path fill-rule="evenodd" clip-rule="evenodd" d="M17.2487 0.259229C14.8129 0.784432 12.4203 1.52856 10.0492 2.49846C7.88831 3.38241 7.95617 3.34106 7.49297 4.05593C6.67653 5.31607 5.49329 7.43914 4.7 9.06731C2.23586 14.1247 0.832934 18.9628 0.190794 24.6175C0.0078186 26.2288 -0.0628282 30.7298 0.0649094 32.6384C0.155765 33.9959 0.1801 34.136 0.349181 34.2771C0.816851 34.6667 3.25649 36.3141 4.27772 36.9297C5.75003 37.8172 8.29762 39.1014 9.83872 39.7328C11.4088 40.3761 13.2708 41.0234 13.3692 40.9601C13.595 40.815 15.3557 37.9197 15.8982 36.8014L16.1464 36.29L15.7503 36.1345C14.6873 35.717 11.7694 34.2087 11.7788 34.0814C11.7859 33.9851 12.8087 33.248 12.9003 33.2733C12.9532 33.2878 13.3563 33.4592 13.7963 33.6542C16.4428 34.827 19.8166 35.7348 22.9324 36.1125C24.3374 36.2828 28.0473 36.2543 29.5004 36.062C32.5347 35.6604 35.4599 34.8447 38.2022 33.6357L39.1634 33.2118L39.6368 33.6129C39.8971 33.8336 40.1101 34.0563 40.1101 34.1078C40.1101 34.2308 37.643 35.5326 36.5993 35.9603L35.7832 36.2948L36.0002 36.742C36.5833 37.9434 38.4771 41 38.6383 41C38.7703 41 41.243 40.0935 42.2253 39.6851C45.242 38.4307 48.1485 36.7867 50.9766 34.7353C51.891 34.0721 51.809 34.3387 51.9455 31.5823C52.3568 23.269 50.4345 14.8576 46.4196 7.40278C45.707 6.07974 44.2465 3.66722 44.0486 3.48631C43.7093 3.1761 40.6349 1.93164 38.7207 1.3297C37.0541 0.805544 33.7996 0 33.3488 0C33.2568 0 31.9844 2.61279 31.9844 2.80184C31.9844 2.87648 31.8986 2.89462 31.7107 2.85984C30.3016 2.59894 28.7386 2.50144 25.9638 2.50144C23.2043 2.50144 21.4842 2.60981 20.2863 2.85905C20.0684 2.90443 20.037 2.85616 19.3699 1.45296C18.8605 0.381528 18.6406 0.00183919 18.5323 0.0070956C18.4515 0.0110379 17.8739 0.124489 17.2487 0.259229ZM18.1966 17.2119C19.3389 17.4636 20.4136 18.2306 21.0753 19.2662C23.0934 22.4246 21.6769 26.9196 18.3819 27.8125C16.907 28.2121 15.359 27.7381 14.2116 26.5351C13.6489 25.9452 13.0711 24.9447 12.8765 24.2233C12.1773 21.6312 13.2312 18.7965 15.3184 17.6553C16.2913 17.1235 17.1768 16.987 18.1966 17.2119ZM36.0065 17.3553C37.0771 17.7232 38.0977 18.6575 38.6666 19.7902C39.0612 20.576 39.2221 21.1861 39.2811 22.1207C39.3903 23.8513 38.8505 25.38 37.7182 26.5468C36.7753 27.5185 35.8329 27.9456 34.6368 27.9434C33.3778 27.9411 32.499 27.5372 31.5167 26.5097C30.7512 25.7088 30.3196 24.9142 30.0845 23.8729C29.9182 23.1364 29.9617 21.4861 30.1649 20.8259C30.7299 18.9898 32.2732 17.4558 33.8369 17.1761C34.47 17.0629 35.3728 17.1374 36.0065 17.3553Z" fill="white"/>
</svg>
