<svg width="41" height="41" viewBox="0 0 41 41" fill="none" xmlns="http://www.w3.org/2000/svg">
<path fill-rule="evenodd" clip-rule="evenodd" d="M18.4464 0.104455C10.4331 0.923413 3.60794 6.38344 1.05881 14.0145C-0.957652 20.0508 -0.0646771 26.6321 3.48783 31.9179C6.02715 35.6961 9.71219 38.506 14.0101 39.9413C20.0472 41.9575 26.6293 41.0647 31.9158 37.5126C35.6945 34.9736 38.5047 31.2891 39.9402 26.9917C41.9565 20.9562 41.0678 14.4006 37.513 9.08517C33.3237 2.82112 25.932 -0.66056 18.4464 0.104455ZM21.9474 8.46134C22.254 8.7249 22.2698 8.78956 22.3245 9.99331L22.3815 11.2502L22.8802 11.6108C23.7166 12.2156 25.2753 13.7778 26.0052 14.7426C27.4167 16.6089 27.8702 18.2517 27.393 19.7689C27.1081 20.674 26.266 21.9201 25.1619 23.0701L24.232 24.0385H23.2782H22.3245V25.122V26.2054H23.7577C24.5838 26.2054 25.2965 26.1517 25.4401 26.0786C25.5771 26.0089 26.0532 25.5949 26.498 25.1587L27.3067 24.3655L30.4275 23.4607C32.1439 22.9631 33.6406 22.5559 33.7534 22.5559C33.9323 22.5559 33.9586 22.6632 33.9586 23.394V24.232L33.4744 24.4489C33.2081 24.5682 32.69 24.8656 32.3233 25.1099C31.7359 25.501 31.5031 25.7866 30.3714 27.5048C29.0571 29.5 28.4287 30.2069 27.554 30.6736L27.058 30.9383L20.8531 30.9705C14.9488 31.0013 14.6041 30.9917 13.7387 30.7729C11.8221 30.2883 10.2014 28.9803 9.33135 27.2162C8.83861 26.2168 8.48799 24.8529 8.54604 24.1611L8.58026 23.7534L11.7428 23.7231L14.9053 23.6927L14.9576 23.9512C14.9863 24.0933 15.0364 24.4068 15.0688 24.6479C15.1424 25.1945 15.5737 25.773 16.0905 26.0182C16.402 26.166 16.8469 26.2054 18.207 26.2054H19.9292V25.122V24.0385H18.3894C16.5975 24.0385 16.6051 24.0454 17.2888 23.0344C17.9872 22.0018 18.6533 20.7195 18.9607 19.8157C19.6473 17.7978 19.1157 14.8598 17.4205 11.3015C17.0563 10.5373 16.7819 9.88861 16.8106 9.85987C16.8392 9.83125 17.5142 9.98156 18.3104 10.194C19.1066 10.4065 19.7967 10.5805 19.8437 10.5808C19.8907 10.581 19.931 10.2349 19.9332 9.8114C19.9355 9.38795 20.0053 8.919 20.0884 8.76903C20.4317 8.14977 21.3988 7.98976 21.9474 8.46134ZM16.3922 13.9728C17.0232 15.7069 17.2205 16.5998 17.2308 17.7661C17.2412 18.9371 17.1496 19.2343 16.2907 20.8187L15.9034 21.5333L12.9832 21.503C10.392 21.4759 10.0645 21.452 10.0759 21.2905C10.087 21.1355 12.1022 17.9183 14.8882 13.608C15.622 12.4726 15.6225 12.4721 15.8256 12.7229C15.9372 12.8607 16.1923 13.4233 16.3922 13.9728Z" fill="white"/>
</svg>
