<svg width="41" height="41" viewBox="0 0 41 41" fill="none" xmlns="http://www.w3.org/2000/svg">
<path d="M20.5 0C9.17924 0 0 9.17924 0 20.5C0 31.8208 9.17924 41 20.5 41C31.8208 41 41 31.8208 41 20.5C41 9.17924 31.8208 0 20.5 0ZM30.3519 15.4528C30.3656 15.6679 30.3656 15.8921 30.3656 16.1117C30.3656 22.8291 25.2498 30.567 15.9012 30.567C13.0184 30.567 10.3461 29.7296 8.09475 28.2882C8.50658 28.3339 8.90011 28.3522 9.32109 28.3522C11.7006 28.3522 13.8878 27.5469 15.6313 26.1833C13.3982 26.1375 11.5221 24.6732 10.8815 22.6598C11.664 22.7742 12.3686 22.7742 13.174 22.5683C12.0242 22.3347 10.9907 21.7102 10.2492 20.801C9.5076 19.8918 9.10368 18.7539 9.10603 17.5806V17.5165C9.77868 17.8963 10.5703 18.1297 11.3985 18.1617C10.7023 17.6977 10.1313 17.069 9.73618 16.3315C9.34106 15.594 9.13405 14.7703 9.13348 13.9336C9.13348 12.9864 9.38058 12.1215 9.82444 11.3711C11.1007 12.9422 12.6932 14.2271 14.4986 15.1424C16.3039 16.0577 18.2816 16.5828 20.3032 16.6837C19.5848 13.2289 22.1656 10.433 25.2681 10.433C26.7324 10.433 28.0502 11.0462 28.9791 12.0346C30.1277 11.8195 31.2259 11.3894 32.2051 10.8128C31.8253 11.9888 31.0291 12.9818 29.9721 13.6087C30.9971 13.4989 31.9855 13.2152 32.9007 12.8171C32.2097 13.8329 31.3449 14.7344 30.3519 15.4528Z" fill="white"/>
</svg>
